<?xml version="1.0" encoding="UTF-8"?>
<svg version="1.1" xmlns="http://www.w3.org/2000/svg" width="640" height="640">
<path d="M0 0 C0.67289062 -0.02900391 1.34578125 -0.05800781 2.0390625 -0.08789062 C5.45893159 -0.13164879 7.28204953 0.052235 10.0390625 2.14453125 C13.03004161 6.23318496 13.27501689 10.42590241 12.625 15.3125 C10.39760293 23.73314747 6.76870248 30.0953464 1.00390625 36.58203125 C-1.98887393 40.01709421 -4.67830593 43.64319027 -7.375 47.3125 C-6.35684204 47.37981323 -6.35684204 47.37981323 -5.31811523 47.44848633 C29.29356959 49.80085052 29.29356959 49.80085052 36.625 54.3125 C38.3675455 57.79759101 38.19836331 61.50984907 37.625 65.3125 C32.83294235 71.99233793 24.71772705 73.73282473 17.125 75.6875 C16.31546875 75.90970215 15.5059375 76.1319043 14.671875 76.36083984 C10.00580646 77.60247361 5.45332062 78.51029581 0.65625 79.078125 C-9.70364995 80.15835141 -9.70364995 80.15835141 -18.39599609 85.29541016 C-21.80299732 89.89318937 -24.17167187 94.87576988 -26.39477539 100.12744141 C-28.76740067 105.41635704 -32.23467617 109.28407682 -36.375 113.3125 C-36.705 113.9725 -37.035 114.6325 -37.375 115.3125 C-38.035 115.3125 -38.695 115.3125 -39.375 115.3125 C-43.10240709 121.1440885 -42.20259223 129.67364986 -41.375 136.3125 C-39.54904469 144.43675536 -36.20631186 152.14822234 -30.80859375 158.52734375 C-29.20952476 160.518555 -28.06946095 162.55714401 -26.875 164.8125 C-24.44604915 169.33671197 -21.52416015 173.27041343 -18.375 177.3125 C-17.33199979 178.72818515 -16.29031551 180.14484083 -15.25 181.5625 C-13.13567735 184.38159687 -10.95734557 186.9023108 -8.375 189.3125 C-7.570625 190.2715625 -7.570625 190.2715625 -6.75 191.25 C-4.34306334 193.34023447 -2.47248147 194.15113487 0.4375 195.375 C6.83732361 198.44804306 9.37187669 203.20886765 12.625 209.3125 C13.12515625 210.22773438 13.6253125 211.14296875 14.140625 212.0859375 C15.13310752 213.90897119 16.11615127 215.73717412 17.08984375 217.5703125 C18.66204463 220.37867132 20.39461429 223.01559689 22.1875 225.6875 C25.45648002 230.70282255 27.53591725 235.81843275 29.484375 241.46484375 C30.46372666 244.27237841 30.46372666 244.27237841 32.05859375 246.20703125 C43.08701703 261.03077226 45.98774874 284.9693851 48.88671875 302.77734375 C49.46280613 305.53585737 50.13996945 307.67875052 51.1484375 310.26220703 C53.09364011 316.04396361 53.0387841 321.60191435 52.98828125 327.65234375 C52.98877975 328.81447891 52.98927826 329.97661407 52.98979187 331.17396545 C52.98746164 333.62047036 52.97779563 336.06697813 52.96118164 338.51342773 C52.93759453 342.23508409 52.94062893 345.95602219 52.94726562 349.67773438 C52.94168758 352.06510839 52.93457691 354.45247942 52.92578125 356.83984375 C52.92669266 357.94118149 52.92760406 359.04251923 52.92854309 360.17723083 C52.87538546 366.04015507 52.41159287 371.48552592 51.10342407 377.20681763 C50.42425239 380.19604813 50.06703501 383.21010526 49.6875 386.25 C48.97125265 391.41364372 47.94402861 396.27571315 46.46875 401.26953125 C45.81104647 403.64152685 45.24029823 405.98395047 44.71875 408.38671875 C43.10126554 415.82068725 41.42721785 422.70540921 37.96313477 429.54101562 C36.64420373 432.2727261 35.55664548 435.02495281 34.46875 437.85546875 C31.62101767 444.74105416 27.76260477 450.68365784 23.5625 456.8125 C22.85544922 457.86953125 22.14839844 458.9265625 21.41992188 460.015625 C17.47008383 465.86064355 13.91698454 471.07929831 7.83984375 474.85546875 C6.79666992 475.50612305 6.79666992 475.50612305 5.73242188 476.16992188 C5.01634766 476.60884766 4.30027344 477.04777344 3.5625 477.5 C2.84255859 477.95052734 2.12261719 478.40105469 1.38085938 478.86523438 C-1.55091313 480.68091892 -4.08673764 482.21641255 -7.375 483.3125 C-7.42398437 484.27671875 -7.47296875 485.2409375 -7.5234375 486.234375 C-7.63558594 488.12929688 -7.63558594 488.12929688 -7.75 490.0625 C-7.81960938 491.31546875 -7.88921875 492.5684375 -7.9609375 493.859375 C-8.83799169 501.173676 -12.89975715 503.67391677 -18.46484375 508.1171875 C-21.98609606 510.7734879 -25.56950575 513.08664488 -29.375 515.3125 C-23.77177243 519.9123127 -17.60641542 520.91660748 -10.625 522.375 C-3.58706677 523.88944111 3.34276023 525.45533623 10.21679688 527.6003418 C13.56616394 528.59082271 16.95509015 529.34137681 20.36328125 530.09960938 C44.73892756 535.5344757 44.73892756 535.5344757 50.625 543.3125 C50.625 543.9725 50.625 544.6325 50.625 545.3125 C54.24335209 542.34028221 55.67350959 539.25086244 57.44140625 535.0546875 C61.42107452 525.83446596 66.16149671 517.17122755 71.51171875 508.68359375 C74.21688036 504.36833596 76.81234245 499.99102463 79.39208984 495.59985352 C86.38422549 483.82948938 86.38422549 483.82948938 90.625 482.0625 C93.89801801 482.3352515 95.28129651 482.99705948 97.41015625 485.5 C104.2033165 495.63513297 107.88997633 509.29934697 109.625 521.3125 C110.718125 521.395 111.81125 521.4775 112.9375 521.5625 C116.625 522.3125 116.625 522.3125 118.625 523.9375 C122.58398883 533.34009847 113.21336702 550.42929808 109.625 559.3125 C110.46804688 559.84359375 111.31109375 560.3746875 112.1796875 560.921875 C113.27539062 561.62828125 114.37109375 562.3346875 115.5 563.0625 C116.59054687 563.75859375 117.68109375 564.4546875 118.8046875 565.171875 C121.47052477 567.19525287 122.62105004 568.18627606 123.625 571.3125 C123.625 574.3125 123.625 574.3125 122.625 577.3125 C117.42542813 581.74563582 111.48723768 582.97696608 104.9375 584.5 C103.82842285 584.76119629 102.7193457 585.02239258 101.57666016 585.29150391 C91.8903626 587.45903775 82.52849368 588.32613179 72.625 588.3125 C71.58496826 588.31491699 71.58496826 588.31491699 70.52392578 588.31738281 C67.31907329 588.32196008 64.11489466 588.30867022 60.91015625 588.28125 C58.05926784 588.30836903 55.32880738 588.48557523 52.5 588.8125 C48.6005173 589.25666218 44.73726798 589.47459926 40.8125 589.5625 C39.75417969 589.58828125 38.69585938 589.6140625 37.60546875 589.640625 C34.20290733 589.26603108 32.35987047 588.33542035 29.625 586.3125 C28.27983447 583.62216894 28.21882638 581.11285122 27.875 578.125 C26.69321902 570.15954769 26.69321902 570.15954769 21.625 564.3125 C13.57657137 560.13623728 5.05506314 557.75451271 -3.74121094 555.71020508 C-7.45744529 554.83759101 -10.92782919 553.81166402 -14.4375 552.3125 C-23.33878442 548.53977018 -32.72581043 546.56137774 -42.21191406 544.91479492 C-65.11567997 540.90396884 -65.11567997 540.90396884 -71.078125 534.4765625 C-72.6211794 531.90118298 -73.42840214 529.15229359 -74.375 526.3125 C-75.29724365 526.29791748 -76.2194873 526.28333496 -77.16967773 526.26831055 C-80.63101518 526.20681526 -84.09161453 526.13258523 -87.55249023 526.05004883 C-89.04294757 526.01704205 -90.53352262 525.98893673 -92.02416992 525.96606445 C-100.20239428 525.83720876 -107.77309049 525.67956504 -115.375 522.3125 C-116.51324219 521.86390625 -117.65148437 521.4153125 -118.82421875 520.953125 C-126.06201822 517.84497469 -133.11587212 514.52350428 -140.12109375 510.92578125 C-143.4971902 509.25191831 -146.89981332 507.76671845 -150.375 506.3125 C-150.99375 507.055 -151.6125 507.7975 -152.25 508.5625 C-155.23646229 511.5240751 -158.39132258 512.77939665 -162.32836914 514.14306641 C-165.39639394 515.24836043 -165.39639394 515.24836043 -168.21459961 516.83081055 C-182.10593693 523.74778456 -197.27018577 521.62942671 -212.36791992 521.03857422 C-230.53500009 519.6698689 -230.53500009 519.6698689 -246.2434082 527.27246094 C-246.9468335 527.94567383 -247.65025879 528.61888672 -248.375 529.3125 C-249.61928362 530.13908694 -250.88775387 530.93166195 -252.1875 531.66796875 C-253.239375 532.27253906 -254.29125 532.87710938 -255.375 533.5 C-260.66206636 536.51402557 -266.05637136 538.99782465 -271.71484375 541.234375 C-273.99606707 542.15892366 -276.13691899 543.16793546 -278.3125 544.3125 C-288.13067988 549.33293012 -298.72823324 552.57015099 -309.375 555.3125 C-310.05522217 555.49192139 -310.73544434 555.67134277 -311.4362793 555.85620117 C-315.78672756 556.5317007 -320.09268704 556.43437785 -324.48828125 556.41015625 C-325.45783249 556.4087413 -326.42738373 556.40732635 -327.42631531 556.40586853 C-330.51340867 556.40028513 -333.60042867 556.38773564 -336.6875 556.375 C-338.78450416 556.36998286 -340.88150946 556.36542032 -342.97851562 556.36132812 C-348.11070521 556.35032112 -353.24284018 556.33306788 -358.375 556.3125 C-358.34881592 557.28598389 -358.32263184 558.25946777 -358.2956543 559.26245117 C-358.20489979 562.88705302 -358.14766099 566.51155527 -358.1003418 570.13696289 C-358.07525453 571.70354114 -358.04117585 573.27000299 -357.99780273 574.83618164 C-357.93688774 577.09290309 -357.90873501 579.34807294 -357.88671875 581.60546875 C-357.86091232 582.30149704 -357.8351059 582.99752533 -357.80851746 583.71464539 C-357.80627864 587.62908213 -358.25670561 589.16894514 -360.78051758 592.23168945 C-364.53742735 595.2447827 -366.54933109 595.7856048 -371.375 595.3125 C-377.93786842 591.53885066 -381.67204303 583.68981479 -385.375 577.3125 C-385.89707031 577.8178125 -386.41914063 578.323125 -386.95703125 578.84375 C-391.20966934 582.59739203 -394.33475789 584.83501345 -400.125 585 C-404.6457354 584.70241658 -407.28962659 583.80925654 -410.375 580.3125 C-411.75726016 577.54797967 -411.47025387 575.2663637 -411.4375 572.1875 C-411.42847656 571.09179688 -411.41945313 569.99609375 -411.41015625 568.8671875 C-411.39855469 568.02414062 -411.38695312 567.18109375 -411.375 566.3125 C-412.18324219 566.33570313 -412.99148438 566.35890625 -413.82421875 566.3828125 C-415.42716797 566.40988281 -415.42716797 566.40988281 -417.0625 566.4375 C-418.11824219 566.46070313 -419.17398438 566.48390625 -420.26171875 566.5078125 C-423.42821688 566.30916143 -425.55201637 565.72650785 -428.375 564.3125 C-430.45705671 561.75724859 -430.38600932 560.44036535 -430.1015625 557.13671875 C-429.33233695 553.08794557 -428.0545545 549.54758693 -426.375 545.8125 C-425.91903442 544.78080688 -425.91903442 544.78080688 -425.45385742 543.72827148 C-422.8706152 538.05317275 -419.79803837 532.7626601 -416.50415039 527.47558594 C-414.49755981 524.24401425 -412.72955955 521.09260852 -411.3125 517.5625 C-407.91162728 509.36313562 -402.29139078 502.72532756 -395.375 497.3125 C-394.37724283 496.11947132 -393.39882179 494.91007811 -392.4375 493.6875 C-389.50574682 490.19077355 -386.84188645 488.56636286 -382.375 487.3125 C-378.6875 487.3125 -378.6875 487.3125 -375.375 488.3125 C-373.09882673 490.58867327 -371.63744207 492.87112015 -370 495.625 C-367.71747118 499.3999515 -365.08736019 502.83809575 -362.375 506.3125 C-361.89546875 506.96476562 -361.4159375 507.61703125 -360.921875 508.2890625 C-356.32676534 514.11417626 -350.64633646 517.62517395 -344.38671875 521.4296875 C-341.375 523.3125 -341.375 523.3125 -339.375 525.3125 C-332.6226715 526.20720173 -326.07094795 524.89674408 -319.5625 523.1875 C-318.69665283 522.96666748 -317.83080566 522.74583496 -316.9387207 522.51831055 C-310.58257894 520.81951836 -304.89928581 518.55066671 -299.015625 515.59375 C-296.75884421 514.49874394 -294.73241411 513.73506238 -292.3125 513.125 C-289.39860322 512.51658844 -289.39860322 512.51658844 -287.5 510.875 C-285.31012858 509.26480043 -283.70464853 508.71667711 -281.125 507.9375 C-275.191111 506.07396461 -269.87795909 503.56693863 -266.375 498.3125 C-266.69626128 495.67815746 -267.18855048 493.68539903 -268.375 491.3125 C-268.41522391 488.9795134 -268.41820247 486.64543334 -268.375 484.3125 C-268.98085938 484.14234375 -269.58671875 483.9721875 -270.2109375 483.796875 C-279.34765398 481.15425546 -287.20140645 478.67091247 -294.375 472.3125 C-296.36565541 471.29402514 -298.36748185 470.29732022 -300.375 469.3125 C-324.4761686 455.64766297 -338.02303043 429.10302573 -348.18359375 404.1953125 C-349.23795048 401.6441149 -350.35031648 399.13419521 -351.5 396.625 C-352.76748331 393.81452289 -353.82234196 391.02861466 -354.73828125 388.0859375 C-356.01939551 384.1772563 -357.60509207 380.53669234 -359.38183594 376.83178711 C-363.02287929 369.22045711 -365.12938823 362.79357858 -365.95703125 354.37109375 C-366.57015407 349.88440996 -368.26756237 346.27238281 -370.375 342.3125 C-370.81199219 341.36761719 -371.24898437 340.42273438 -371.69921875 339.44921875 C-373.53911638 336.00530781 -375.74439889 333.09334726 -378.25 330.125 C-378.67152344 329.60486328 -379.09304688 329.08472656 -379.52734375 328.54882812 C-382.18841152 325.36287084 -384.75611129 323.30410318 -388.375 321.3125 C-390.06373879 319.66820171 -391.72805515 317.99865782 -393.375 316.3125 C-397.16880356 312.8421313 -400.90800886 309.88101991 -405.375 307.3125 C-407.15668363 306.0628469 -408.91453856 304.78361966 -410.671875 303.5 C-412.49947149 302.17959965 -412.49947149 302.17959965 -415.125 300.8125 C-419.90133718 297.62827522 -421.8649211 291.67940202 -423.375 286.3125 C-423.8125 282.5625 -423.8125 282.5625 -423.375 279.3125 C-419.90644959 275.03113384 -416.14090151 274.00970046 -411.03125 272.4375 C-408.08071685 271.18786243 -406.48030765 269.69586715 -404.375 267.3125 C-404.78492188 266.52746094 -405.19484375 265.74242187 -405.6171875 264.93359375 C-406.42542969 263.35771484 -406.42542969 263.35771484 -407.25 261.75 C-408.05050781 260.20119141 -408.05050781 260.20119141 -408.8671875 258.62109375 C-412.28648212 251.11813378 -412.71243073 244.49743202 -412.6875 236.375 C-412.70361328 235.32892578 -412.71972656 234.28285156 -412.73632812 233.20507812 C-412.74088505 225.95500902 -411.62615176 220.81480352 -408.375 214.3125 C-404.47376258 213.26216685 -402.29123728 212.85438136 -398.625 214.6875 C-396.01711554 217.73003187 -395.22715367 220.27675092 -394.11328125 224.06640625 C-392.65116709 228.51463715 -390.32609153 231.56047414 -386.6875 234.4375 C-384.375 236.3125 -384.375 236.3125 -383.875 238.4375 C-383.6275 239.365625 -383.6275 239.365625 -383.375 240.3125 C-381.71515202 240.99596682 -380.04663195 241.65838315 -378.375 242.3125 C-377.28411689 243.19519931 -376.22406432 244.11660443 -375.1875 245.0625 C-368.77519943 250.77781138 -361.06865895 254.60814569 -353.375 258.3125 C-353.601875 257.508125 -353.82875 256.70375 -354.0625 255.875 C-354.55078629 250.30853625 -352.85861504 245.4554995 -349.6875 240.875 C-349.254375 240.359375 -348.82125 239.84375 -348.375 239.3125 C-348.375 238.6525 -348.375 237.9925 -348.375 237.3125 C-350.09009766 236.49845703 -350.09009766 236.49845703 -351.83984375 235.66796875 C-353.33098626 234.94584313 -354.82185779 234.22315778 -356.3125 233.5 C-357.06724609 233.14357422 -357.82199219 232.78714844 -358.59960938 232.41992188 C-359.31826172 232.06865234 -360.03691406 231.71738281 -360.77734375 231.35546875 C-361.44241943 231.03602295 -362.10749512 230.71657715 -362.79272461 230.38745117 C-364.375 229.3125 -364.375 229.3125 -365.375 226.3125 C-366.138125 226.02375 -366.90125 225.735 -367.6875 225.4375 C-371.03875423 224.03464939 -372.36386317 222.29196197 -374.375 219.3125 C-374.375 218.6525 -374.375 217.9925 -374.375 217.3125 C-375.035 217.3125 -375.695 217.3125 -376.375 217.3125 C-379.21409939 211.63430121 -378.02663005 202.37051278 -376.1875 196.4375 C-373.14487244 188.73808096 -368.1994522 182.1369522 -362.375 176.3125 C-364.75651214 173.68030237 -367.33803641 172.12021642 -370.375 170.3125 C-371.138125 169.673125 -371.90125 169.03375 -372.6875 168.375 C-374.94446844 166.64290795 -376.84111745 165.52477026 -379.375 164.3125 C-383.35822037 162.39995184 -387.33293469 160.39663061 -389.375 156.3125 C-390.34685681 148.67648218 -387.72231439 143.53047695 -383.375 137.3125 C-380.53729009 134.11949958 -377.54916632 131.16924969 -374.375 128.3125 C-375.86340872 125.33568256 -378.13946329 124.87990051 -381.125 123.5 C-387.17726798 120.54574568 -391.85574418 117.83481062 -394.375 111.3125 C-395.41525834 102.70905194 -396.05299246 94.42337164 -390.875 87.0625 C-387.69846133 83.38647026 -384.27776696 80.37441965 -380.26171875 77.65234375 C-378.31366294 76.2689418 -376.7252388 74.77450514 -375.0625 73.0625 C-372.375 70.3125 -372.375 70.3125 -369.375 68.3125 C-369.8596875 67.96960938 -370.344375 67.62671875 -370.84375 67.2734375 C-377.91964639 61.74879532 -384.16787411 54.07298258 -385.78320312 45.02636719 C-386.01746575 42.62960459 -386.11508802 40.28286731 -386.125 37.875 C-386.12822266 37.13016357 -386.13144531 36.38532715 -386.13476562 35.61791992 C-385.88844201 29.51798934 -383.99212561 25.17170973 -379.8125 20.60546875 C-374.11877817 16.22687288 -370.51287485 14.94900475 -363.3125 15 C-362.5275415 15.00273926 -361.74258301 15.00547852 -360.93383789 15.00830078 C-346.26417131 15.26110082 -331.95152863 18.72646718 -317.75 22.125 C-314.62655957 22.86093587 -311.5011699 23.58825189 -308.375 24.3125 C-307.41996582 24.53405762 -306.46493164 24.75561523 -305.48095703 24.98388672 C-302.42701441 25.68690676 -299.37024673 26.37623183 -296.3125 27.0625 C-295.34940918 27.28526611 -294.38631836 27.50803223 -293.39404297 27.73754883 C-287.88881708 28.95832284 -283.00336912 29.43367049 -277.375 29.3125 C-276.61742905 29.4719812 -275.85985809 29.6314624 -275.07933044 29.79577637 C-271.83902185 30.41491078 -268.77625393 30.46791352 -265.47680664 30.50195312 C-264.80296432 30.51024643 -264.12912201 30.51853973 -263.43486023 30.52708435 C-261.97860557 30.54441504 -260.5223241 30.55960056 -259.06602669 30.57286072 C-256.75776796 30.59400083 -254.44964282 30.62101444 -252.14146423 30.64953613 C-247.24019489 30.70906093 -242.33886237 30.76129299 -237.4375 30.8125 C-231.75904117 30.87187222 -226.0806486 30.93427001 -220.40231133 31.00437927 C-218.13460837 31.03081916 -215.86689812 31.0517142 -213.59913635 31.0723877 C-212.20028361 31.0890024 -210.80143391 31.10587525 -209.40258789 31.12304688 C-208.1874501 31.13557495 -206.97231232 31.14810303 -205.72035217 31.16101074 C-202.52356867 31.30577229 -199.51923484 31.73964009 -196.375 32.3125 C-194.8537615 32.36553516 -193.33029912 32.37715439 -191.80859375 32.33984375 C-190.99326172 32.32759766 -190.17792969 32.31535156 -189.33789062 32.30273438 C-187.65030646 32.2674948 -185.96279826 32.22841404 -184.27539062 32.18554688 C-179.75972002 32.12476588 -176.51969402 32.34288472 -172.375 34.3125 C-169.36510249 35.07698195 -166.34325871 35.75708511 -163.3125 36.43359375 C-157.18522741 38.26688675 -154.73793782 40.99688861 -151.375 46.3125 C-150.73691406 46.90289062 -150.09882813 47.49328125 -149.44140625 48.1015625 C-143.32649624 54.64416943 -140.75561278 65.82367837 -138.3046875 74.25 C-137.44936904 77.06751965 -136.45205139 79.76145072 -135.375 82.5 C-131.52928721 92.84103086 -129.73565996 103.97552131 -127.87109375 114.81640625 C-127.33963777 117.4904249 -126.63032492 120.06828872 -125.875 122.6875 C-124.46000944 127.67907473 -123.61189853 132.64542494 -122.90234375 137.78125 C-122.60420363 139.77768459 -122.28221472 141.77187225 -121.88256836 143.75048828 C-120.50367529 150.6270939 -120.14387613 157.18859882 -120.0625 164.1875 C-119.77747584 175.24923023 -117.88328607 185.1428542 -115.00830078 195.78173828 C-114.16004991 199.1714717 -113.55705802 202.58645513 -112.95117188 206.02636719 C-110.05940508 222.28160173 -103.75710981 242.01048829 -90.47265625 252.8671875 C-77.91086983 261.76690099 -77.91086983 261.76690099 -63.375 264.3125 C-58.76644013 260.96082009 -56.60168053 256.77285671 -55.375 251.3125 C-55.57481689 242.12092289 -61.4199691 233.09485848 -66.125 225.5 C-66.65287109 224.63415283 -67.18074219 223.76830566 -67.72460938 222.8762207 C-69.26699321 220.350121 -70.81932345 217.83042946 -72.375 215.3125 C-73.18251307 214.00013621 -73.98982793 212.68765041 -74.796875 211.375 C-76.12142138 209.223857 -77.4480267 207.07397945 -78.77734375 204.92578125 C-80.03773911 202.86415656 -81.25762993 200.79546871 -82.4375 198.6875 C-85.92274426 192.61642935 -89.65461852 186.69466066 -93.72265625 180.99609375 C-100.75905682 171.13485041 -100.75905682 171.13485041 -102.57421875 165.26953125 C-104.01772323 161.74174714 -106.44148387 158.82411172 -108.66796875 155.75390625 C-117.97221228 142.44692179 -118.55474752 128.13579817 -118.5625 112.375 C-118.57474609 111.06853516 -118.58699219 109.76207031 -118.59960938 108.41601562 C-118.62134601 94.0191164 -116.4168553 78.55225452 -106.8359375 67.171875 C-105.234003 65.13304927 -104.15830169 63.06660338 -103 60.75 C-100.35844686 55.80773928 -96.75218005 52.71796391 -92.375 49.3125 C-91.488125 48.590625 -90.60125 47.86875 -89.6875 47.125 C-88.924375 46.526875 -88.16125 45.92875 -87.375 45.3125 C-86.30958984 44.39210938 -86.30958984 44.39210938 -85.22265625 43.453125 C-81.82569923 40.89958255 -78.31223087 39.09911011 -74.5 37.25 C-73.81808594 36.91162109 -73.13617188 36.57324219 -72.43359375 36.22460938 C-60.2398861 30.22065999 -60.2398861 30.22065999 -53.9375 29.125 C-52.99261719 28.95355469 -52.04773438 28.78210938 -51.07421875 28.60546875 C-48.56169009 28.33276303 -46.71487278 28.52914782 -44.25 28.9375 C-39.29382963 28.13811768 -38.77016184 26.72714211 -35.875 22.75 C-35.10630458 21.64054604 -34.33936643 20.52987242 -33.57421875 19.41796875 C-26.3923387 9.27659284 -12.47198185 0.17715883 0 0 Z " fill="#FDFDFD" transform="translate(478.375,25.6875)"/>
<path d="M0 0 C0.67289062 -0.02900391 1.34578125 -0.05800781 2.0390625 -0.08789062 C5.45893159 -0.13164879 7.28204953 0.052235 10.0390625 2.14453125 C13.03004161 6.23318496 13.27501689 10.42590241 12.625 15.3125 C10.39760293 23.73314747 6.76870248 30.0953464 1.00390625 36.58203125 C-1.98887393 40.01709421 -4.67830593 43.64319027 -7.375 47.3125 C-6.35684204 47.37981323 -6.35684204 47.37981323 -5.31811523 47.44848633 C29.29356959 49.80085052 29.29356959 49.80085052 36.625 54.3125 C38.3675455 57.79759101 38.19836331 61.50984907 37.625 65.3125 C32.83294235 71.99233793 24.71772705 73.73282473 17.125 75.6875 C16.31546875 75.90970215 15.5059375 76.1319043 14.671875 76.36083984 C10.00580646 77.60247361 5.45332062 78.51029581 0.65625 79.078125 C-9.70364995 80.15835141 -9.70364995 80.15835141 -18.39599609 85.29541016 C-21.80299732 89.89318937 -24.17167187 94.87576988 -26.39477539 100.12744141 C-28.76740067 105.41635704 -32.23467617 109.28407682 -36.375 113.3125 C-36.705 113.9725 -37.035 114.6325 -37.375 115.3125 C-38.035 115.3125 -38.695 115.3125 -39.375 115.3125 C-43.10240709 121.1440885 -42.20259223 129.67364986 -41.375 136.3125 C-39.54904469 144.43675536 -36.20631186 152.14822234 -30.80859375 158.52734375 C-29.20952476 160.518555 -28.06946095 162.55714401 -26.875 164.8125 C-24.44604915 169.33671197 -21.52416015 173.27041343 -18.375 177.3125 C-17.33199979 178.72818515 -16.29031551 180.14484083 -15.25 181.5625 C-13.13567735 184.38159687 -10.95734557 186.9023108 -8.375 189.3125 C-7.570625 190.2715625 -7.570625 190.2715625 -6.75 191.25 C-4.34306334 193.34023447 -2.47248147 194.15113487 0.4375 195.375 C6.83732361 198.44804306 9.37187669 203.20886765 12.625 209.3125 C13.12515625 210.22773438 13.6253125 211.14296875 14.140625 212.0859375 C15.13310752 213.90897119 16.11615127 215.73717412 17.08984375 217.5703125 C18.66204463 220.37867132 20.39461429 223.01559689 22.1875 225.6875 C25.45648002 230.70282255 27.53591725 235.81843275 29.484375 241.46484375 C30.46372666 244.27237841 30.46372666 244.27237841 32.05859375 246.20703125 C43.08701703 261.03077226 45.98774874 284.9693851 48.88671875 302.77734375 C49.46280613 305.53585737 50.13996945 307.67875052 51.1484375 310.26220703 C53.09364011 316.04396361 53.0387841 321.60191435 52.98828125 327.65234375 C52.98877975 328.81447891 52.98927826 329.97661407 52.98979187 331.17396545 C52.98746164 333.62047036 52.97779563 336.06697813 52.96118164 338.51342773 C52.93759453 342.23508409 52.94062893 345.95602219 52.94726562 349.67773438 C52.94168758 352.06510839 52.93457691 354.45247942 52.92578125 356.83984375 C52.92669266 357.94118149 52.92760406 359.04251923 52.92854309 360.17723083 C52.87538546 366.04015507 52.41159287 371.48552592 51.10342407 377.20681763 C50.42425239 380.19604813 50.06703501 383.21010526 49.6875 386.25 C48.97125265 391.41364372 47.94402861 396.27571315 46.46875 401.26953125 C45.81104647 403.64152685 45.24029823 405.98395047 44.71875 408.38671875 C43.10126554 415.82068725 41.42721785 422.70540921 37.96313477 429.54101562 C36.64420373 432.2727261 35.55664548 435.02495281 34.46875 437.85546875 C31.62101767 444.74105416 27.76260477 450.68365784 23.5625 456.8125 C22.85544922 457.86953125 22.14839844 458.9265625 21.41992188 460.015625 C17.47008383 465.86064355 13.91698454 471.07929831 7.83984375 474.85546875 C6.79666992 475.50612305 6.79666992 475.50612305 5.73242188 476.16992188 C5.01634766 476.60884766 4.30027344 477.04777344 3.5625 477.5 C2.84255859 477.95052734 2.12261719 478.40105469 1.38085938 478.86523438 C-1.55091313 480.68091892 -4.08673764 482.21641255 -7.375 483.3125 C-7.42398437 484.27671875 -7.47296875 485.2409375 -7.5234375 486.234375 C-7.63558594 488.12929688 -7.63558594 488.12929688 -7.75 490.0625 C-7.81960938 491.31546875 -7.88921875 492.5684375 -7.9609375 493.859375 C-8.83799169 501.173676 -12.89975715 503.67391677 -18.46484375 508.1171875 C-21.98609606 510.7734879 -25.56950575 513.08664488 -29.375 515.3125 C-23.77177243 519.9123127 -17.60641542 520.91660748 -10.625 522.375 C-3.58706677 523.88944111 3.34276023 525.45533623 10.21679688 527.6003418 C13.56616394 528.59082271 16.95509015 529.34137681 20.36328125 530.09960938 C44.73892756 535.5344757 44.73892756 535.5344757 50.625 543.3125 C50.625 543.9725 50.625 544.6325 50.625 545.3125 C54.24335209 542.34028221 55.67350959 539.25086244 57.44140625 535.0546875 C61.42107452 525.83446596 66.16149671 517.17122755 71.51171875 508.68359375 C74.21688036 504.36833596 76.81234245 499.99102463 79.39208984 495.59985352 C86.38422549 483.82948938 86.38422549 483.82948938 90.625 482.0625 C93.89801801 482.3352515 95.28129651 482.99705948 97.41015625 485.5 C104.2033165 495.63513297 107.88997633 509.29934697 109.625 521.3125 C110.718125 521.395 111.81125 521.4775 112.9375 521.5625 C116.625 522.3125 116.625 522.3125 118.625 523.9375 C122.58398883 533.34009847 113.21336702 550.42929808 109.625 559.3125 C110.46804688 559.84359375 111.31109375 560.3746875 112.1796875 560.921875 C113.27539062 561.62828125 114.37109375 562.3346875 115.5 563.0625 C116.59054687 563.75859375 117.68109375 564.4546875 118.8046875 565.171875 C121.47052477 567.19525287 122.62105004 568.18627606 123.625 571.3125 C123.625 574.3125 123.625 574.3125 122.625 577.3125 C117.42542813 581.74563582 111.48723768 582.97696608 104.9375 584.5 C103.82842285 584.76119629 102.7193457 585.02239258 101.57666016 585.29150391 C91.8903626 587.45903775 82.52849368 588.32613179 72.625 588.3125 C71.58496826 588.31491699 71.58496826 588.31491699 70.52392578 588.31738281 C67.31907329 588.32196008 64.11489466 588.30867022 60.91015625 588.28125 C58.05926784 588.30836903 55.32880738 588.48557523 52.5 588.8125 C48.6005173 589.25666218 44.73726798 589.47459926 40.8125 589.5625 C39.75417969 589.58828125 38.69585938 589.6140625 37.60546875 589.640625 C34.20290733 589.26603108 32.35987047 588.33542035 29.625 586.3125 C28.27983447 583.62216894 28.21882638 581.11285122 27.875 578.125 C26.69321902 570.15954769 26.69321902 570.15954769 21.625 564.3125 C13.57657137 560.13623728 5.05506314 557.75451271 -3.74121094 555.71020508 C-7.45744529 554.83759101 -10.92782919 553.81166402 -14.4375 552.3125 C-23.33878442 548.53977018 -32.72581043 546.56137774 -42.21191406 544.91479492 C-65.11567997 540.90396884 -65.11567997 540.90396884 -71.078125 534.4765625 C-72.6211794 531.90118298 -73.42840214 529.15229359 -74.375 526.3125 C-75.29724365 526.29791748 -76.2194873 526.28333496 -77.16967773 526.26831055 C-80.63101518 526.20681526 -84.09161453 526.13258523 -87.55249023 526.05004883 C-89.04294757 526.01704205 -90.53352262 525.98893673 -92.02416992 525.96606445 C-100.20239428 525.83720876 -107.77309049 525.67956504 -115.375 522.3125 C-116.51324219 521.86390625 -117.65148437 521.4153125 -118.82421875 520.953125 C-126.06201822 517.84497469 -133.11587212 514.52350428 -140.12109375 510.92578125 C-143.4971902 509.25191831 -146.89981332 507.76671845 -150.375 506.3125 C-150.99375 507.055 -151.6125 507.7975 -152.25 508.5625 C-155.23646229 511.5240751 -158.39132258 512.77939665 -162.32836914 514.14306641 C-165.39639394 515.24836043 -165.39639394 515.24836043 -168.21459961 516.83081055 C-182.10593693 523.74778456 -197.27018577 521.62942671 -212.36791992 521.03857422 C-230.53500009 519.6698689 -230.53500009 519.6698689 -246.2434082 527.27246094 C-246.9468335 527.94567383 -247.65025879 528.61888672 -248.375 529.3125 C-249.61928362 530.13908694 -250.88775387 530.93166195 -252.1875 531.66796875 C-253.239375 532.27253906 -254.29125 532.87710938 -255.375 533.5 C-260.66206636 536.51402557 -266.05637136 538.99782465 -271.71484375 541.234375 C-273.99606707 542.15892366 -276.13691899 543.16793546 -278.3125 544.3125 C-288.13067988 549.33293012 -298.72823324 552.57015099 -309.375 555.3125 C-310.05522217 555.49192139 -310.73544434 555.67134277 -311.4362793 555.85620117 C-315.78672756 556.5317007 -320.09268704 556.43437785 -324.48828125 556.41015625 C-325.45783249 556.4087413 -326.42738373 556.40732635 -327.42631531 556.40586853 C-330.51340867 556.40028513 -333.60042867 556.38773564 -336.6875 556.375 C-338.78450416 556.36998286 -340.88150946 556.36542032 -342.97851562 556.36132812 C-348.11070521 556.35032112 -353.24284018 556.33306788 -358.375 556.3125 C-358.34881592 557.28598389 -358.32263184 558.25946777 -358.2956543 559.26245117 C-358.20489979 562.88705302 -358.14766099 566.51155527 -358.1003418 570.13696289 C-358.07525453 571.70354114 -358.04117585 573.27000299 -357.99780273 574.83618164 C-357.93688774 577.09290309 -357.90873501 579.34807294 -357.88671875 581.60546875 C-357.86091232 582.30149704 -357.8351059 582.99752533 -357.80851746 583.71464539 C-357.80627864 587.62908213 -358.25670561 589.16894514 -360.78051758 592.23168945 C-364.53742735 595.2447827 -366.54933109 595.7856048 -371.375 595.3125 C-377.93786842 591.53885066 -381.67204303 583.68981479 -385.375 577.3125 C-385.89707031 577.8178125 -386.41914063 578.323125 -386.95703125 578.84375 C-391.20966934 582.59739203 -394.33475789 584.83501345 -400.125 585 C-404.6457354 584.70241658 -407.28962659 583.80925654 -410.375 580.3125 C-411.75726016 577.54797967 -411.47025387 575.2663637 -411.4375 572.1875 C-411.42847656 571.09179688 -411.41945313 569.99609375 -411.41015625 568.8671875 C-411.39855469 568.02414062 -411.38695312 567.18109375 -411.375 566.3125 C-412.18324219 566.33570313 -412.99148438 566.35890625 -413.82421875 566.3828125 C-415.42716797 566.40988281 -415.42716797 566.40988281 -417.0625 566.4375 C-418.11824219 566.46070313 -419.17398438 566.48390625 -420.26171875 566.5078125 C-423.42821688 566.30916143 -425.55201637 565.72650785 -428.375 564.3125 C-430.45705671 561.75724859 -430.38600932 560.44036535 -430.1015625 557.13671875 C-429.33233695 553.08794557 -428.0545545 549.54758693 -426.375 545.8125 C-425.91903442 544.78080688 -425.91903442 544.78080688 -425.45385742 543.72827148 C-422.8706152 538.05317275 -419.79803837 532.7626601 -416.50415039 527.47558594 C-414.49755981 524.24401425 -412.72955955 521.09260852 -411.3125 517.5625 C-407.91162728 509.36313562 -402.29139078 502.72532756 -395.375 497.3125 C-394.37724283 496.11947132 -393.39882179 494.91007811 -392.4375 493.6875 C-389.50574682 490.19077355 -386.84188645 488.56636286 -382.375 487.3125 C-378.6875 487.3125 -378.6875 487.3125 -375.375 488.3125 C-373.09882673 490.58867327 -371.63744207 492.87112015 -370 495.625 C-367.71747118 499.3999515 -365.08736019 502.83809575 -362.375 506.3125 C-361.89546875 506.96476562 -361.4159375 507.61703125 -360.921875 508.2890625 C-356.32676534 514.11417626 -350.64633646 517.62517395 -344.38671875 521.4296875 C-341.375 523.3125 -341.375 523.3125 -339.375 525.3125 C-332.6226715 526.20720173 -326.07094795 524.89674408 -319.5625 523.1875 C-318.69665283 522.96666748 -317.83080566 522.74583496 -316.9387207 522.51831055 C-310.58257894 520.81951836 -304.89928581 518.55066671 -299.015625 515.59375 C-296.75884421 514.49874394 -294.73241411 513.73506238 -292.3125 513.125 C-289.39860322 512.51658844 -289.39860322 512.51658844 -287.5 510.875 C-285.31012858 509.26480043 -283.70464853 508.71667711 -281.125 507.9375 C-275.191111 506.07396461 -269.87795909 503.56693863 -266.375 498.3125 C-266.69626128 495.67815746 -267.18855048 493.68539903 -268.375 491.3125 C-268.41522391 488.9795134 -268.41820247 486.64543334 -268.375 484.3125 C-268.98085938 484.14234375 -269.58671875 483.9721875 -270.2109375 483.796875 C-279.34765398 481.15425546 -287.20140645 478.67091247 -294.375 472.3125 C-296.36565541 471.29402514 -298.36748185 470.29732022 -300.375 469.3125 C-324.4761686 455.64766297 -338.02303043 429.10302573 -348.18359375 404.1953125 C-349.23795048 401.6441149 -350.35031648 399.13419521 -351.5 396.625 C-352.76748331 393.81452289 -353.82234196 391.02861466 -354.73828125 388.0859375 C-356.01939551 384.1772563 -357.60509207 380.53669234 -359.38183594 376.83178711 C-363.02287929 369.22045711 -365.12938823 362.79357858 -365.95703125 354.37109375 C-366.57015407 349.88440996 -368.26756237 346.27238281 -370.375 342.3125 C-370.81199219 341.36761719 -371.24898437 340.42273438 -371.69921875 339.44921875 C-373.53911638 336.00530781 -375.74439889 333.09334726 -378.25 330.125 C-378.67152344 329.60486328 -379.09304688 329.08472656 -379.52734375 328.54882812 C-382.18841152 325.36287084 -384.75611129 323.30410318 -388.375 321.3125 C-390.06373879 319.66820171 -391.72805515 317.99865782 -393.375 316.3125 C-397.16880356 312.8421313 -400.90800886 309.88101991 -405.375 307.3125 C-407.15668363 306.0628469 -408.91453856 304.78361966 -410.671875 303.5 C-412.49947149 302.17959965 -412.49947149 302.17959965 -415.125 300.8125 C-419.90133718 297.62827522 -421.8649211 291.67940202 -423.375 286.3125 C-423.8125 282.5625 -423.8125 282.5625 -423.375 279.3125 C-419.90644959 275.03113384 -416.14090151 274.00970046 -411.03125 272.4375 C-408.08071685 271.18786243 -406.48030765 269.69586715 -404.375 267.3125 C-404.78492188 266.52746094 -405.19484375 265.74242187 -405.6171875 264.93359375 C-406.42542969 263.35771484 -406.42542969 263.35771484 -407.25 261.75 C-408.05050781 260.20119141 -408.05050781 260.20119141 -408.8671875 258.62109375 C-412.28648212 251.11813378 -412.71243073 244.49743202 -412.6875 236.375 C-412.70361328 235.32892578 -412.71972656 234.28285156 -412.73632812 233.20507812 C-412.74088505 225.95500902 -411.62615176 220.81480352 -408.375 214.3125 C-404.47376258 213.26216685 -402.29123728 212.85438136 -398.625 214.6875 C-396.01711554 217.73003187 -395.22715367 220.27675092 -394.11328125 224.06640625 C-392.65116709 228.51463715 -390.32609153 231.56047414 -386.6875 234.4375 C-384.375 236.3125 -384.375 236.3125 -383.875 238.4375 C-383.6275 239.365625 -383.6275 239.365625 -383.375 240.3125 C-381.71515202 240.99596682 -380.04663195 241.65838315 -378.375 242.3125 C-377.28411689 243.19519931 -376.22406432 244.11660443 -375.1875 245.0625 C-368.77519943 250.77781138 -361.06865895 254.60814569 -353.375 258.3125 C-353.601875 257.508125 -353.82875 256.70375 -354.0625 255.875 C-354.55078629 250.30853625 -352.85861504 245.4554995 -349.6875 240.875 C-349.254375 240.359375 -348.82125 239.84375 -348.375 239.3125 C-348.375 238.6525 -348.375 237.9925 -348.375 237.3125 C-350.09009766 236.49845703 -350.09009766 236.49845703 -351.83984375 235.66796875 C-353.33098626 234.94584313 -354.82185779 234.22315778 -356.3125 233.5 C-357.06724609 233.14357422 -357.82199219 232.78714844 -358.59960938 232.41992188 C-359.31826172 232.06865234 -360.03691406 231.71738281 -360.77734375 231.35546875 C-361.44241943 231.03602295 -362.10749512 230.71657715 -362.79272461 230.38745117 C-364.375 229.3125 -364.375 229.3125 -365.375 226.3125 C-366.138125 226.02375 -366.90125 225.735 -367.6875 225.4375 C-371.03875423 224.03464939 -372.36386317 222.29196197 -374.375 219.3125 C-374.375 218.6525 -374.375 217.9925 -374.375 217.3125 C-375.035 217.3125 -375.695 217.3125 -376.375 217.3125 C-379.21409939 211.63430121 -378.02663005 202.37051278 -376.1875 196.4375 C-373.14487244 188.73808096 -368.1994522 182.1369522 -362.375 176.3125 C-364.75651214 173.68030237 -367.33803641 172.12021642 -370.375 170.3125 C-371.138125 169.673125 -371.90125 169.03375 -372.6875 168.375 C-374.94446844 166.64290795 -376.84111745 165.52477026 -379.375 164.3125 C-383.35822037 162.39995184 -387.33293469 160.39663061 -389.375 156.3125 C-390.34685681 148.67648218 -387.72231439 143.53047695 -383.375 137.3125 C-380.53729009 134.11949958 -377.54916632 131.16924969 -374.375 128.3125 C-375.86340872 125.33568256 -378.13946329 124.87990051 -381.125 123.5 C-387.17726798 120.54574568 -391.85574418 117.83481062 -394.375 111.3125 C-395.41525834 102.70905194 -396.05299246 94.42337164 -390.875 87.0625 C-387.69846133 83.38647026 -384.27776696 80.37441965 -380.26171875 77.65234375 C-378.31366294 76.2689418 -376.7252388 74.77450514 -375.0625 73.0625 C-372.375 70.3125 -372.375 70.3125 -369.375 68.3125 C-369.8596875 67.96960938 -370.344375 67.62671875 -370.84375 67.2734375 C-377.91964639 61.74879532 -384.16787411 54.07298258 -385.78320312 45.02636719 C-386.01746575 42.62960459 -386.11508802 40.28286731 -386.125 37.875 C-386.12822266 37.13016357 -386.13144531 36.38532715 -386.13476562 35.61791992 C-385.88844201 29.51798934 -383.99212561 25.17170973 -379.8125 20.60546875 C-374.11877817 16.22687288 -370.51287485 14.94900475 -363.3125 15 C-362.5275415 15.00273926 -361.74258301 15.00547852 -360.93383789 15.00830078 C-346.26417131 15.26110082 -331.95152863 18.72646718 -317.75 22.125 C-314.62655957 22.86093587 -311.5011699 23.58825189 -308.375 24.3125 C-307.41996582 24.53405762 -306.46493164 24.75561523 -305.48095703 24.98388672 C-302.42701441 25.68690676 -299.37024673 26.37623183 -296.3125 27.0625 C-295.34940918 27.28526611 -294.38631836 27.50803223 -293.39404297 27.73754883 C-287.88881708 28.95832284 -283.00336912 29.43367049 -277.375 29.3125 C-276.61742905 29.4719812 -275.85985809 29.6314624 -275.07933044 29.79577637 C-271.83902185 30.41491078 -268.77625393 30.46791352 -265.47680664 30.50195312 C-264.80296432 30.51024643 -264.12912201 30.51853973 -263.43486023 30.52708435 C-261.97860557 30.54441504 -260.5223241 30.55960056 -259.06602669 30.57286072 C-256.75776796 30.59400083 -254.44964282 30.62101444 -252.14146423 30.64953613 C-247.24019489 30.70906093 -242.33886237 30.76129299 -237.4375 30.8125 C-231.75904117 30.87187222 -226.0806486 30.93427001 -220.40231133 31.00437927 C-218.13460837 31.03081916 -215.86689812 31.0517142 -213.59913635 31.0723877 C-212.20028361 31.0890024 -210.80143391 31.10587525 -209.40258789 31.12304688 C-208.1874501 31.13557495 -206.97231232 31.14810303 -205.72035217 31.16101074 C-202.52356867 31.30577229 -199.51923484 31.73964009 -196.375 32.3125 C-194.8537615 32.36553516 -193.33029912 32.37715439 -191.80859375 32.33984375 C-190.99326172 32.32759766 -190.17792969 32.31535156 -189.33789062 32.30273438 C-187.65030646 32.2674948 -185.96279826 32.22841404 -184.27539062 32.18554688 C-179.75972002 32.12476588 -176.51969402 32.34288472 -172.375 34.3125 C-169.36510249 35.07698195 -166.34325871 35.75708511 -163.3125 36.43359375 C-157.18522741 38.26688675 -154.73793782 40.99688861 -151.375 46.3125 C-150.73691406 46.90289062 -150.09882813 47.49328125 -149.44140625 48.1015625 C-143.32649624 54.64416943 -140.75561278 65.82367837 -138.3046875 74.25 C-137.44936904 77.06751965 -136.45205139 79.76145072 -135.375 82.5 C-131.52928721 92.84103086 -129.73565996 103.97552131 -127.87109375 114.81640625 C-127.33963777 117.4904249 -126.63032492 120.06828872 -125.875 122.6875 C-124.46000944 127.67907473 -123.61189853 132.64542494 -122.90234375 137.78125 C-122.60420363 139.77768459 -122.28221472 141.77187225 -121.88256836 143.75048828 C-120.50367529 150.6270939 -120.14387613 157.18859882 -120.0625 164.1875 C-119.77747584 175.24923023 -117.88328607 185.1428542 -115.00830078 195.78173828 C-114.16004991 199.1714717 -113.55705802 202.58645513 -112.95117188 206.02636719 C-110.05940508 222.28160173 -103.75710981 242.01048829 -90.47265625 252.8671875 C-77.91086983 261.76690099 -77.91086983 261.76690099 -63.375 264.3125 C-58.76644013 260.96082009 -56.60168053 256.77285671 -55.375 251.3125 C-55.57481689 242.12092289 -61.4199691 233.09485848 -66.125 225.5 C-66.65287109 224.63415283 -67.18074219 223.76830566 -67.72460938 222.8762207 C-69.26699321 220.350121 -70.81932345 217.83042946 -72.375 215.3125 C-73.18251307 214.00013621 -73.98982793 212.68765041 -74.796875 211.375 C-76.12142138 209.223857 -77.4480267 207.07397945 -78.77734375 204.92578125 C-80.03773911 202.86415656 -81.25762993 200.79546871 -82.4375 198.6875 C-85.92274426 192.61642935 -89.65461852 186.69466066 -93.72265625 180.99609375 C-100.75905682 171.13485041 -100.75905682 171.13485041 -102.57421875 165.26953125 C-104.01772323 161.74174714 -106.44148387 158.82411172 -108.66796875 155.75390625 C-117.97221228 142.44692179 -118.55474752 128.13579817 -118.5625 112.375 C-118.57474609 111.06853516 -118.58699219 109.76207031 -118.59960938 108.41601562 C-118.62134601 94.0191164 -116.4168553 78.55225452 -106.8359375 67.171875 C-105.234003 65.13304927 -104.15830169 63.06660338 -103 60.75 C-100.35844686 55.80773928 -96.75218005 52.71796391 -92.375 49.3125 C-91.488125 48.590625 -90.60125 47.86875 -89.6875 47.125 C-88.924375 46.526875 -88.16125 45.92875 -87.375 45.3125 C-86.30958984 44.39210938 -86.30958984 44.39210938 -85.22265625 43.453125 C-81.82569923 40.89958255 -78.31223087 39.09911011 -74.5 37.25 C-73.81808594 36.91162109 -73.13617188 36.57324219 -72.43359375 36.22460938 C-60.2398861 30.22065999 -60.2398861 30.22065999 -53.9375 29.125 C-52.99261719 28.95355469 -52.04773438 28.78210938 -51.07421875 28.60546875 C-48.56169009 28.33276303 -46.71487278 28.52914782 -44.25 28.9375 C-39.29382963 28.13811768 -38.77016184 26.72714211 -35.875 22.75 C-35.10630458 21.64054604 -34.33936643 20.52987242 -33.57421875 19.41796875 C-26.3923387 9.27659284 -12.47198185 0.17715883 0 0 Z M-373.375 30.3125 C-375.00324266 37.59628764 -374.30405325 44.81475753 -370.4375 51.25 C-367.19940083 55.68665939 -363.44410517 59.29006003 -359.1953125 62.75390625 C-356.50960367 65.05347239 -356.39493611 66.09719004 -356.0625 69.6875 C-356.375 73.3125 -356.375 73.3125 -357.875 75.4375 C-359.90915698 76.96311774 -361.88604454 78.22328614 -364.06640625 79.51171875 C-368.44370773 82.23147942 -372.09454712 85.45086228 -375.8125 89 C-376.43576172 89.58072266 -377.05902344 90.16144531 -377.70117188 90.75976562 C-381.86699742 94.68080925 -383.55289258 96.66793414 -383.875 102.5625 C-383.83158298 106.63678654 -383.83158298 106.63678654 -382.12890625 110.23046875 C-378.38753642 113.59165319 -374.05613121 115.56919976 -369.390625 117.35546875 C-367.14703153 118.42074084 -365.89997177 119.35314233 -364.375 121.3125 C-363.12483671 125.46652358 -363.04641462 129.23912109 -364.3125 133.375 C-366.71714121 136.79979202 -369.49477881 139.52395742 -372.49609375 142.42578125 C-374.63059666 144.56915943 -376.20667548 146.50852115 -377.375 149.3125 C-377.3058746 151.36621693 -377.3058746 151.36621693 -376.375 153.3125 C-374.43990377 154.57294745 -374.43990377 154.57294745 -372 155.5 C-366.5636122 158.00790383 -362.38447935 161.35510932 -357.87109375 165.25390625 C-355.82219188 166.94368917 -354.02650832 168.11822987 -351.6875 169.3125 C-349.375 171.3125 -349.375 171.3125 -348.87890625 173.37109375 C-348.67396188 177.15324891 -348.98298088 179.62646653 -350.875 182.9375 C-352.30495033 184.29595281 -353.76044647 185.63080928 -355.28125 186.88671875 C-361.7826529 192.2843387 -365.07044414 196.98955089 -366.375 205.4375 C-366.56512388 208.80320654 -366.37711392 210.3073662 -365.0625 213.5 C-358.34917297 220.52557479 -350.0587545 224.65646605 -341.37890625 228.734375 C-337.08587253 230.98975293 -337.08587253 230.98975293 -335.375 233.3125 C-334.74212559 237.46134334 -334.4393995 239.87474104 -336.7578125 243.4375 C-337.85007109 244.77869195 -338.9832897 246.08786873 -340.16015625 247.35546875 C-341.60175898 249.29200659 -341.60175898 249.29200659 -341.3671875 251.87890625 C-340.03225826 255.15316182 -338.62253808 255.61516152 -335.4375 257.0625 C-329.17283906 260.23148973 -324.17409241 264.19401407 -319.375 269.3125 C-318.91536865 269.76085205 -318.4557373 270.2092041 -317.98217773 270.67114258 C-312.92857651 276.37705134 -313.88587997 282.89757329 -314.1875 290.125 C-314.26501902 292.56875534 -314.33445965 295.01278479 -314.39453125 297.45703125 C-314.43682861 298.53315674 -314.47912598 299.60928223 -314.52270508 300.71801758 C-314.65446389 303.47688466 -314.65446389 303.47688466 -312.375 305.3125 C-311.055 305.3125 -309.735 305.3125 -308.375 305.3125 C-308.375 305.9725 -308.375 306.6325 -308.375 307.3125 C-307.61574219 307.71082031 -306.85648437 308.10914063 -306.07421875 308.51953125 C-305.08035156 309.04933594 -304.08648437 309.57914062 -303.0625 310.125 C-302.07636719 310.64707031 -301.09023438 311.16914063 -300.07421875 311.70703125 C-297.375 313.3125 -297.375 313.3125 -295.94433594 314.81689453 C-294.18838883 316.49034381 -292.85292838 317.07769072 -290.56640625 317.84765625 C-289.45386475 318.22410278 -289.45386475 318.22410278 -288.31884766 318.6081543 C-287.14008057 318.98774292 -287.14008057 318.98774292 -285.9375 319.375 C-285.1336084 319.64030518 -284.3297168 319.90561035 -283.50146484 320.17895508 C-277.96714854 321.95053364 -272.54942596 323.17420663 -266.7578125 323.79296875 C-263.88913722 324.41843402 -262.44134732 325.22745271 -260.375 327.3125 C-259.765625 329.57421875 -259.765625 329.57421875 -259.625 332 C-259.56828125 332.80824219 -259.5115625 333.61648438 -259.453125 334.44921875 C-259.41445313 335.37154297 -259.41445313 335.37154297 -259.375 336.3125 C-260.035 336.3125 -260.695 336.3125 -261.375 336.3125 C-264.55146057 343.58027068 -264.55146057 343.58027068 -264.375 351.3125 C-257.49916931 358.50567672 -245.70771718 361.53347113 -236.25 363.4375 C-232.64800803 364.25085303 -231.07020728 364.9407176 -228.375 367.3125 C-227.715 367.3125 -227.055 367.3125 -226.375 367.3125 C-226.705 369.6225 -227.035 371.9325 -227.375 374.3125 C-230.75 374.4375 -230.75 374.4375 -234.375 374.3125 C-235.035 373.6525 -235.695 372.9925 -236.375 372.3125 C-238.66428278 371.81178225 -238.66428278 371.81178225 -241.3125 371.5 C-249.18742953 370.19094758 -255.76257203 366.63968568 -262.8125 363.0625 C-266.04654283 361.28570074 -266.04654283 361.28570074 -268.47265625 360.890625 C-270.375 360.3125 -270.375 360.3125 -272.375 357.3125 C-272.63378906 355.38305664 -272.63378906 355.38305664 -272.640625 353.22265625 C-272.64320313 352.43826172 -272.64578125 351.65386719 -272.6484375 350.84570312 C-272.64070312 350.03037109 -272.63296875 349.21503906 -272.625 348.375 C-272.63273438 347.56353516 -272.64046875 346.75207031 -272.6484375 345.91601562 C-272.64585937 345.13033203 -272.64328125 344.34464844 -272.640625 343.53515625 C-272.63836914 342.82109619 -272.63611328 342.10703613 -272.63378906 341.37133789 C-272.33648983 339.00612618 -271.45314553 337.42141476 -270.375 335.3125 C-270.375 334.3225 -270.375 333.3325 -270.375 332.3125 C-271.2721875 332.17714844 -272.169375 332.04179687 -273.09375 331.90234375 C-280.51241623 330.62247055 -287.21952345 328.84915945 -294.125 325.8125 C-295.14303711 325.36765259 -295.14303711 325.36765259 -296.18164062 324.91381836 C-299.46252285 323.41174272 -301.94669146 321.96961573 -304.375 319.3125 C-306.20390635 318.21780823 -306.20390635 318.21780823 -308.1875 317.3125 C-308.89132812 316.96960938 -309.59515625 316.62671875 -310.3203125 316.2734375 C-312.05319358 315.46300262 -313.80593494 314.69523395 -315.5625 313.9375 C-319.11797692 311.88322445 -321.62871951 310.04502085 -323.375 306.3125 C-323.94314694 300.40915073 -323.38761354 294.4927195 -323.00390625 288.58789062 C-322.60218533 280.73000004 -322.60218533 280.73000004 -326.1015625 273.98046875 C-331.07991607 269.98612082 -336.76620967 270.4267491 -342.875 270.5625 C-352.09182139 270.63795936 -358.65823202 270.54508032 -366.125 264.625 C-369.11760313 262.02262249 -369.11760313 262.02262249 -372.375 262.3125 C-372.375 261.6525 -372.375 260.9925 -372.375 260.3125 C-373.0865625 260.07144531 -373.798125 259.83039063 -374.53125 259.58203125 C-377.79852575 258.12342601 -380.13164897 256.29254756 -382.875 254 C-383.7928125 253.24074219 -384.710625 252.48148438 -385.65625 251.69921875 C-389.12384633 248.6551076 -392.33335286 245.4154205 -395.5 242.0625 C-397.35477175 240.08806277 -397.35477175 240.08806277 -400.375 239.3125 C-400.9560404 245.0066959 -399.8564845 249.66487281 -398.0625 255.0625 C-397.84956299 255.71226807 -397.63662598 256.36203613 -397.41723633 257.03149414 C-396.17031474 260.62736524 -394.67170649 263.31476391 -392.375 266.3125 C-392.16100658 270.09305045 -392.5101197 272.33524546 -395.05859375 275.21484375 C-399.59169268 279.26806831 -404.26243942 283.18054434 -410.375 284.3125 C-410.5930773 287.64765719 -410.5930773 287.64765719 -409.375 291.3125 C-407.37318308 292.81270154 -405.29288363 293.78711311 -403.0390625 294.87109375 C-398.94976514 297.08363147 -395.62609623 300.11567083 -392.0859375 303.10546875 C-388.96563226 305.64577489 -385.69508319 307.79636631 -382.3125 309.96484375 C-380.49374237 311.22990702 -379.02807197 312.52871053 -377.5 314.125 C-375.48996449 316.52980516 -375.48996449 316.52980516 -372.375 317.3125 C-371.68940519 318.97147016 -371.02537759 320.63940968 -370.375 322.3125 C-368.61567593 324.49784447 -368.61567593 324.49784447 -366.5625 326.5625 C-358.94629533 334.88365284 -355.63756252 343.25332348 -354.625 354.5 C-353.81659541 361.04484358 -352.01593994 365.89800217 -348.83984375 371.63671875 C-346.94667794 375.09490163 -345.66245558 378.59318387 -344.375 382.3125 C-343.715 382.3125 -343.055 382.3125 -342.375 382.3125 C-342.478125 383.26125 -342.58125 384.21 -342.6875 385.1875 C-342.70576944 389.7091863 -340.76292083 392.94866102 -338.66015625 396.85546875 C-337.28610165 399.48246067 -336.31647781 402.1767259 -335.3203125 404.96484375 C-333.99325357 408.26055621 -332.44597114 411.44075295 -330.875 414.625 C-330.42954834 415.54200684 -330.42954834 415.54200684 -329.97509766 416.47753906 C-328.41107271 419.60212296 -326.83937494 421.88142743 -324.375 424.3125 C-323.45312949 426.12271846 -322.58362997 427.95998895 -321.75 429.8125 C-318.5045842 436.4890146 -314.25005365 441.76306392 -309.375 447.3125 C-308.95226807 447.86631348 -308.52953613 448.42012695 -308.09399414 448.99072266 C-304.06940665 454.11725551 -299.49782324 456.97580478 -293.8125 460.0625 C-292.14449795 460.99473209 -290.47652825 461.92702206 -288.80859375 462.859375 C-288.03080566 463.28734375 -287.25301758 463.7153125 -286.45166016 464.15625 C-284.81949787 465.06501094 -283.21136248 466.01693686 -281.61328125 466.984375 C-272.84721625 472.18587954 -263.80067361 474.22444851 -253.8671875 475.734375 C-250.375 476.3125 -250.375 476.3125 -248.375 477.3125 C-245.39659047 477.83603136 -242.4094531 478.27262433 -239.41796875 478.71484375 C-236.375 479.3125 -236.375 479.3125 -234.08203125 480.2890625 C-230.11306236 481.78959619 -226.06752294 482.19585233 -221.875 482.75 C-216.24907097 483.49512696 -210.85145362 484.43576027 -205.36328125 485.8984375 C-196.95241101 487.89916566 -188.64928207 487.64015998 -180.0625 487.5 C-178.43555941 487.48491019 -176.80860511 487.47122947 -175.18164062 487.45898438 C-171.24574729 487.42635481 -167.31053062 487.37481656 -163.375 487.3125 C-163.045 485.6625 -162.715 484.0125 -162.375 482.3125 C-159.65625 482.01953125 -159.65625 482.01953125 -156.375 482.3125 C-154.03125 484.32421875 -154.03125 484.32421875 -151.875 487 C-148.58402037 490.89232143 -145.49459352 494.26400079 -141.375 497.3125 C-140.64410156 497.85390625 -139.91320312 498.3953125 -139.16015625 498.953125 C-132.87376804 503.30160407 -126.52279446 505.94326932 -119.30151367 508.27124023 C-115.28842031 509.57048328 -111.9810206 511.07601335 -108.375 513.3125 C-104.23851278 514.57122568 -100.12715924 514.47448946 -95.83984375 514.48046875 C-95.0059462 514.48379715 -94.17204865 514.48712555 -93.31288147 514.49055481 C-91.54689076 514.49561324 -89.78089052 514.49796347 -88.01489258 514.49780273 C-85.34635058 514.49997248 -82.67823361 514.51809299 -80.00976562 514.53710938 C-65.45559789 514.58553148 -53.34255096 513.01099991 -40.31640625 506.28125 C-38.50019672 505.37497241 -36.62553934 504.58858524 -34.75 503.8125 C-31.28941281 502.27446125 -28.44073799 500.5302679 -25.375 498.3125 C-24.26125 497.714375 -23.1475 497.11625 -22 496.5 C-19.40287967 494.37076819 -19.35692386 493.15446289 -18.96484375 489.7265625 C-18.62777035 482.81183109 -18.62777035 482.81183109 -20.375 476.3125 C-20.50274803 474.91862704 -20.60333242 473.52218188 -20.6875 472.125 C-21.09404606 468.02019626 -22.20398568 465.49540618 -24.38671875 462.05859375 C-27.32782897 456.86224486 -27.61809108 451.14668604 -27.375 445.3125 C-24.46539496 445.64822366 -22.83794371 445.84216507 -20.375 447.3125 C-18.50829241 450.46840253 -17.50042299 453.83677504 -16.375 457.3125 C-15.82804688 458.54866311 -15.26748213 459.77898498 -14.6875 461 C-13.31189841 464.47175638 -12.75295229 467.6085676 -12.375 471.3125 C-4.59399027 470.40739193 3.24009615 464.3483469 8.19921875 458.43554688 C11.2897815 454.23055869 13.9461272 449.78605969 16.625 445.3125 C17.20894531 444.54679687 17.79289062 443.78109375 18.39453125 442.9921875 C19.82198564 441.39062616 19.82198564 441.39062616 19.625 439.3125 C20.285 439.3125 20.945 439.3125 21.625 439.3125 C21.76035156 438.76464844 21.89570313 438.21679688 22.03515625 437.65234375 C23.53723848 432.12072356 25.61129438 427.07896203 28.125 421.9375 C32.4447608 412.99448232 34.78494562 404.22624573 35.31640625 394.2734375 C35.625 392.3125 35.625 392.3125 37.625 390.3125 C38.16589341 387.81377858 38.16589341 387.81377858 38.44140625 384.90234375 C38.62799805 383.29456055 38.62799805 383.29456055 38.81835938 381.65429688 C38.94017578 380.53087891 39.06199219 379.40746094 39.1875 378.25 C39.43506547 376.02952813 39.6861719 373.80944719 39.94140625 371.58984375 C40.04912354 370.60234131 40.15684082 369.61483887 40.26782227 368.59741211 C40.625 366.3125 40.625 366.3125 41.625 365.3125 C41.7335509 363.88723284 41.77401791 362.4566873 41.78613281 361.02734375 C41.80054413 359.65956787 41.80054413 359.65956787 41.81524658 358.26416016 C41.81949646 357.2694873 41.82374634 356.27481445 41.828125 355.25 C41.83382507 354.2295459 41.83952515 353.2090918 41.84539795 352.15771484 C41.85486946 349.98878013 41.86139042 347.81983089 41.86523438 345.65087891 C41.87487793 342.3542295 41.90585517 339.05821998 41.9375 335.76171875 C41.94403609 333.65364953 41.94928418 331.54557585 41.953125 329.4375 C41.9716452 327.96978149 41.9716452 327.96978149 41.99053955 326.47241211 C41.97281054 320.93667693 41.32484848 316.38885803 39.33761597 311.20751953 C38.3665109 308.62511449 37.9249287 306.03204369 37.5 303.3125 C37.20510045 300.00762836 37.20510045 300.00762836 35.625 297.3125 C35.3194415 295.44284503 35.05703928 293.56611019 34.8125 291.6875 C32.17010049 273.92902096 25.77674502 258.16100892 17.625 242.3125 C16.83225719 240.66718474 16.04048959 239.021399 15.25 237.375 C12.74669832 232.35181848 9.85476598 227.57892122 6.92895508 222.79394531 C4.7919415 219.29498227 2.80116789 215.77996033 0.9375 212.125 C-2.61913051 205.6329313 -9.55357598 202.58630801 -16.375 200.3125 C-17.09199294 199.00554042 -17.75214266 197.6668526 -18.375 196.3125 C-19.38472974 194.93435536 -20.42970059 193.5816516 -21.5 192.25 C-27.06891033 185.19604691 -32.45046589 178.03423564 -37.09375 170.33203125 C-38.60422616 167.95118926 -40.26916322 165.7102554 -41.9375 163.4375 C-46.7432368 156.6363377 -49.2565593 149.29739186 -51.375 141.3125 C-51.705 140.3225 -52.035 139.3325 -52.375 138.3125 C-53.035 138.3125 -53.695 138.3125 -54.375 138.3125 C-54.77523373 123.96536553 -54.41454931 114.94022493 -44.375 104.3125 C-44.375 103.6525 -44.375 102.9925 -44.375 102.3125 C-43.715 102.3125 -43.055 102.3125 -42.375 102.3125 C-40.64449943 99.92601207 -39.02517677 97.5413835 -37.4375 95.0625 C-36.55438419 93.70247594 -35.67029527 92.34308318 -34.78515625 90.984375 C-34.3682251 90.34113281 -33.95129395 89.69789062 -33.52172852 89.03515625 C-32.61463108 87.6724823 -31.64561905 86.35104329 -30.65625 85.046875 C-28.68528591 82.37886263 -27.63027085 79.36881163 -26.375 76.3125 C-25.84592041 75.36866455 -25.84592041 75.36866455 -25.30615234 74.40576172 C-23.49801393 70.34100587 -24.00571088 65.81774186 -24 61.4375 C-23.97550781 60.45652344 -23.95101563 59.47554687 -23.92578125 58.46484375 C-23.89566451 51.02601003 -25.45738823 47.49583233 -30.51953125 41.97265625 C-34.67111436 39.55894514 -38.33773445 39.67189388 -43.0625 39.75 C-43.95936523 39.75733154 -44.85623047 39.76466309 -45.78027344 39.7722168 C-52.76807618 39.97874971 -57.4863728 41.55283802 -63.375 45.3125 C-64.77711879 45.87131546 -66.19415287 46.39449163 -67.625 46.875 C-78.95883484 50.99844289 -88.62162538 60.565186 -95.375 70.3125 C-95.89707031 71.02019531 -96.41914063 71.72789063 -96.95703125 72.45703125 C-109.29903907 89.79833338 -109.34288388 111.32013661 -106.625 131.8125 C-105.47408567 137.90748295 -103.45113617 142.83302449 -99.46484375 147.59375 C-97.1174826 150.6475133 -95.4572792 153.85291947 -93.8125 157.3125 C-91.83082633 161.42524181 -89.78883559 165.43194686 -87.375 169.3125 C-86.77558594 170.29863281 -86.77558594 170.29863281 -86.1640625 171.3046875 C-84.12653261 174.60028954 -82.04421821 177.81404629 -79.75 180.9375 C-77.58642285 183.90644657 -75.92249964 186.97315866 -74.375 190.3125 C-73.715 190.3125 -73.055 190.3125 -72.375 190.3125 C-72.10042969 191.02019531 -71.82585937 191.72789062 -71.54296875 192.45703125 C-68.20168006 200.62586748 -64.08851927 208.01666786 -58.8984375 215.14453125 C-57.07603812 217.73794576 -55.76686708 220.46824987 -54.375 223.3125 C-53.40307744 224.69263003 -52.42303959 226.06706062 -51.4375 227.4375 C-45.61727898 236.05897452 -43.02638154 245.41718999 -44.77734375 255.66796875 C-45.42982007 258.35037141 -46.31210214 260.76375185 -47.375 263.3125 C-47.81972656 264.40175781 -48.26445312 265.49101562 -48.72265625 266.61328125 C-52.73072236 274.38290371 -52.73072236 274.38290371 -57.23339844 275.96582031 C-68.99494126 278.15620665 -80.65368615 273.76629467 -90.375 267.3125 C-92.25020535 265.78490523 -94.0536841 264.21500425 -95.82543945 262.56884766 C-97.46897478 261.08571306 -97.46897478 261.08571306 -100.375 260.3125 C-112.97160529 246.01057811 -121.23911086 226.49545247 -124.0625 207.75 C-124.19205078 206.93208984 -124.32160156 206.11417969 -124.45507812 205.27148438 C-124.7685407 203.28622139 -125.07276963 201.29950395 -125.375 199.3125 C-126.035 199.3125 -126.695 199.3125 -127.375 199.3125 C-127.50777344 198.21550781 -127.64054687 197.11851562 -127.77734375 195.98828125 C-127.95562985 194.53384199 -128.1340208 193.07941558 -128.3125 191.625 C-128.39951172 190.90376953 -128.48652344 190.18253906 -128.57617188 189.43945312 C-128.66318359 188.73369141 -128.75019531 188.02792969 -128.83984375 187.30078125 C-128.918396 186.65665283 -128.99694824 186.01252441 -129.07788086 185.34887695 C-129.29555535 183.85699288 -129.57653193 182.37398043 -129.89306641 180.89990234 C-130.39525364 178.20376235 -130.54948153 175.66609404 -130.62109375 172.92578125 C-130.65396484 171.90419922 -130.68683594 170.88261719 -130.72070312 169.83007812 C-130.78133898 167.71298376 -130.83869336 165.59579257 -130.89257812 163.47851562 C-131.13857842 156.07529909 -131.5854526 148.70195588 -134.41015625 141.7734375 C-135.90854939 137.95162504 -136.26770996 133.99030908 -136.8125 129.9375 C-138.33664003 119.22843658 -139.89018534 108.58427225 -143.375 98.3125 C-143.71235194 96.88062844 -144.02713496 95.44313177 -144.3125 94 C-145.31033187 89.30619888 -146.77268521 84.8310277 -148.375 80.3125 C-149.035 80.3125 -149.695 80.3125 -150.375 80.3125 C-150.52195312 79.27351563 -150.66890625 78.23453125 -150.8203125 77.1640625 C-152.17981039 68.41242614 -153.94588555 61.53308546 -159.375 54.3125 C-159.83519531 53.673125 -160.29539062 53.03375 -160.76953125 52.375 C-162.15133961 50.50281024 -162.15133961 50.50281024 -164.375 48.3125 C-165.365 48.3125 -166.355 48.3125 -167.375 48.3125 C-167.375 47.6525 -167.375 46.9925 -167.375 46.3125 C-168.674375 46.168125 -169.97375 46.02375 -171.3125 45.875 C-175.25 45.4375 -175.25 45.4375 -176.375 44.3125 C-177.78764975 44.15889794 -179.20769469 44.07276651 -180.62744141 44.01367188 C-182.02426651 43.95463684 -182.02426651 43.95463684 -183.4493103 43.89440918 C-184.48955353 43.85706665 -185.52979675 43.81972412 -186.6015625 43.78125 C-187.70005524 43.73971802 -188.79854797 43.69818604 -189.93032837 43.65539551 C-207.02929942 43.06024159 -224.14250877 42.96479512 -241.24975586 42.78643799 C-246.13547213 42.73548077 -251.02111553 42.68083717 -255.90672684 42.62062073 C-258.17073649 42.59421881 -260.43475448 42.57334683 -262.69882202 42.5526123 C-264.07314412 42.53602638 -265.44746283 42.51915608 -266.82177734 42.50195312 C-268.01878265 42.48942505 -269.21578796 42.47689697 -270.44906616 42.46398926 C-273.375 42.3125 -273.375 42.3125 -276.375 41.3125 C-278.18535247 41.15951247 -279.99851429 41.03867849 -281.8125 40.9375 C-287.2366174 40.53232497 -292.16292531 39.43065618 -297.3984375 38.0078125 C-301.34961537 37.08483394 -305.249914 36.76636783 -309.29296875 36.5234375 C-311.375 36.3125 -311.375 36.3125 -312.375 35.3125 C-314.59645633 35.02862221 -316.81817648 34.86484827 -319.05078125 34.69140625 C-321.375 34.3125 -321.375 34.3125 -323.1809082 33.3671875 C-325.70965184 32.15163476 -328.05605112 31.61810248 -330.8046875 31.05859375 C-331.84753906 30.84396484 -332.89039063 30.62933594 -333.96484375 30.40820312 C-335.04894531 30.19099609 -336.13304687 29.97378906 -337.25 29.75 C-338.86455078 29.41838867 -338.86455078 29.41838867 -340.51171875 29.08007812 C-351.14091964 26.8935496 -351.14091964 26.8935496 -361.9375 26 C-363.57912109 25.94392578 -363.57912109 25.94392578 -365.25390625 25.88671875 C-369.19080887 26.42379308 -370.74372595 27.34093367 -373.375 30.3125 Z " fill="#030202" transform="translate(478.375,25.6875)"/>
<path d="M0 0 C0.66 0 1.32 0 2 0 C3.4453125 1.6171875 3.4453125 1.6171875 5.125 3.875 C5.74890625 4.69613281 6.3728125 5.51726563 7.015625 6.36328125 C7.67046875 7.23339844 8.3253125 8.10351562 9 9 C17.50856907 20.25828956 28.125445 31.58441764 42 36 C49.61354071 36.71580297 56.50975866 36.25712581 63.71484375 33.71484375 C66.00971879 32.99695976 67.98247225 32.76624046 70.375 32.625 C76.38032966 32.10510397 81.57365407 29.47581597 87 27 C88.47857208 26.33201566 89.95768935 25.66523598 91.4375 25 C92.15035156 24.67773438 92.86320312 24.35546875 93.59765625 24.0234375 C96.48955025 22.79144363 99.42687557 21.71535462 102.375 20.625 C111.96031602 16.94782613 119.79953348 13.37900881 126 5 C129.87739423 5.7919784 131.97341964 7.45130075 135 10 C135.99 10.495 135.99 10.495 137 11 C137 11.99 137 12.98 137 14 C136.05125 14.515625 135.1025 15.03125 134.125 15.5625 C130.97586622 17.34299616 128.10192391 19.35907248 125.1875 21.5 C120.34531693 24.93261847 115.54698164 26.98291577 110 29 C103.68594159 31.53604547 97.46861686 34.2263156 91.3125 37.125 C77.61710546 43.4760153 64.33902568 45.48959235 49.33862305 45.75512695 C47.73536105 45.7934357 46.13248996 45.85504948 44.53100586 45.93969727 C31.39708481 46.62460732 31.39708481 46.62460732 27.34503174 43.87835693 C24.87793273 41.57207834 23.06197307 39.16996451 21.14282227 36.37768555 C19.16904894 33.66687297 19.16904894 33.66687297 15.79663086 33.59692383 C13.09970019 33.70063234 13.09970019 33.70063234 12 35 C11.90099801 36.97712807 11.87029227 38.95790038 11.875 40.9375 C11.87242188 42.01902344 11.86984375 43.10054687 11.8671875 44.21484375 C11.80992211 46.95659663 11.80992211 46.95659663 13 49 C14.45832948 58.23608672 14.09831874 67.68156813 14 77 C13.34 77 12.68 77 12 77 C11.62875 76.154375 11.2575 75.30875 10.875 74.4375 C7.75188124 68.54144084 7.75188124 68.54144084 3 64 C-1.3168395 63.29105563 -5.15669849 63.92072286 -8.94140625 66.13671875 C-11.09924516 67.86818949 -12.75653103 69.51306206 -14 72 C-14.99 72 -15.98 72 -17 72 C-16.94779297 70.41058594 -16.94779297 70.41058594 -16.89453125 68.7890625 C-16.86639601 67.40105748 -16.83909557 66.01303537 -16.8125 64.625 C-16.78736328 63.92632813 -16.76222656 63.22765625 -16.73632812 62.5078125 C-16.67021439 60.23252323 -16.67021439 60.23252323 -17 57 C-20.52155964 54.65229357 -22.50771843 54.62330386 -26.6875 54.375 C-27.86699219 54.30023437 -29.04648438 54.22546875 -30.26171875 54.1484375 C-31.16535156 54.09945312 -32.06898437 54.05046875 -33 54 C-32.23239997 50.55332534 -30.90799297 47.6621235 -29.29296875 44.51953125 C-27.72596634 41.46600691 -26.21006251 38.38841841 -24.6875 35.3125 C-23.46519156 32.87150429 -22.23435326 30.43492422 -21 28 C-20.40703125 26.82953125 -19.8140625 25.6590625 -19.203125 24.453125 C-14.53875572 15.49588488 -9.74886227 9.33997822 -2 3 C-1.34 2.01 -0.68 1.02 0 0 Z " fill="#F36400" transform="translate(95,526)"/>
<path d="M0 0 C0.99 0.33 1.98 0.66 3 1 C4.09765625 3.4765625 4.09765625 3.4765625 5.0625 6.625 C5.56910156 8.26662109 5.56910156 8.26662109 6.0859375 9.94140625 C6.38757813 10.95074219 6.68921875 11.96007812 7 13 C7.5878125 14.7634375 7.5878125 14.7634375 8.1875 16.5625 C9.13317414 20.56342903 9.42728778 24.4484513 9.65625 28.546875 C9.85438407 31.25160001 9.85438407 31.25160001 12 34 C12.99 34.33 13.98 34.66 15 35 C14.13874827 45.40301427 14.13874827 45.40301427 12 49 C10.80847196 49.9791492 9.59804958 50.93552038 8.375 51.875 C5.48533139 54.23156413 5.06319867 54.72289815 4.1875 58.5625 C5.22387216 62.94715143 7.34704969 64.68161701 11 67 C11.94875 67.556875 12.8975 68.11375 13.875 68.6875 C14.57625 69.120625 15.2775 69.55375 16 70 C16 70.66 16 71.32 16 72 C3.84872258 76.07969189 -7.51961484 76.62570201 -20.25 76.6875 C-23.04295948 76.71664853 -25.83576029 76.75113542 -28.62860107 76.78999329 C-30.35024726 76.81233823 -32.07199247 76.82824368 -33.79376221 76.83683777 C-37.1104887 76.86705156 -39.83166656 76.94388885 -43 78 C-45.33299825 78.03954234 -47.66708189 78.04401732 -50 78 C-50.06316406 77.23816406 -50.12632812 76.47632813 -50.19140625 75.69140625 C-51.23904798 66.8581323 -54.06452591 61.19360742 -60.87109375 55.41015625 C-70.76699464 48.85525676 -83.75888235 46.012091 -95.05859375 42.8671875 C-98 42 -98 42 -100 41 C-100 40.34 -100 39.68 -100 39 C-101.54494141 39.05414062 -101.54494141 39.05414062 -103.12109375 39.109375 C-106.87342724 39.00356902 -109.52155295 38.41390169 -113.0625 37.25 C-120.34233148 35.02929953 -127.66397869 33.71903985 -135.18383789 32.57128906 C-146.83130993 30.65640653 -146.83130993 30.65640653 -151 27 C-151.33 25.35 -151.66 23.7 -152 22 C-148.37 22 -144.74 22 -141 22 C-141 21.34 -141 20.68 -141 20 C-133.59243697 17.24369748 -133.59243697 17.24369748 -130 18 C-129.03309323 19.40034774 -128.07695081 20.81086358 -127.20703125 22.2734375 C-123.59542897 27.43954821 -118.64805769 30.1371777 -112.5625 31.3125 C-111.71816406 31.43238281 -110.87382812 31.55226563 -110.00390625 31.67578125 C-108 32 -108 32 -107 33 C-104.79500267 33.27789007 -102.5856259 33.52115674 -100.375 33.75 C-93.33428928 34.5703428 -87.14063622 36.46848666 -80.484375 38.84375 C-77.44817254 39.85127907 -74.65119363 40.51520098 -71.5 41 C-54.18473153 43.90315878 -54.18473153 43.90315878 -48.59375 49.33984375 C-46.82948543 51.82551312 -45.36728457 54.27845261 -44 57 C-43.64550781 57.65355469 -43.29101562 58.30710937 -42.92578125 58.98046875 C-42.23524703 60.29592082 -41.60670219 61.64384215 -41 63 C-38.14014985 63.01401976 -38.14014985 63.01401976 -35 62 C-33.28696986 59.77601432 -32.03737654 57.88094068 -30.75 55.4375 C-29.54910784 53.24885112 -28.31310739 51.12640588 -27 49 C-26.34 49 -25.68 49 -25 49 C-24.86464844 48.44054687 -24.72929688 47.88109375 -24.58984375 47.3046875 C-19.98290178 30.14589763 -9.17654966 15.02582576 0 0 Z " fill="#F16400" transform="translate(568,526)"/>
<path d="M0 0 C4.70959632 0.72003189 9.31165674 1.75052668 13.9375 2.875 C21.92368447 4.78611959 29.93761548 6.43802991 38 8 C39.77111739 8.35274343 41.54198559 8.70674243 43.3125 9.0625 C44.0410318 9.20628082 44.7695636 9.35006165 45.52017212 9.49819946 C47.11776512 9.82147715 48.71254397 10.15916236 50.30331421 10.51449585 C56.15917061 11.78861075 61.74287216 12.33011298 67.7265625 12.4140625 C68.60025482 12.43342865 69.47394714 12.4527948 70.37411499 12.4727478 C73.1243153 12.53182264 75.87455913 12.57863612 78.625 12.625 C80.50652718 12.66324638 82.3880381 12.70230181 84.26953125 12.7421875 C88.84621976 12.83746333 93.42298994 12.92175507 98 13 C97 16 97 16 95.3984375 17.1328125 C90.85792084 19.35924345 87.04650826 20.57945765 82 21 C82 21.66 82 22.32 82 23 C75.55894757 25.85223644 70.22197776 26.45497189 63.21875 26.43359375 C62.20582886 26.4388356 61.19290771 26.44407745 60.14929199 26.44947815 C58.01799431 26.45587188 55.88666121 26.4545959 53.75537109 26.44604492 C50.50944822 26.4375248 47.26528119 26.46635106 44.01953125 26.49804688 C41.94010469 26.49965897 39.86067504 26.49908119 37.78125 26.49609375 C36.33872864 26.51294472 36.33872864 26.51294472 34.86706543 26.53013611 C21.88300099 26.39695265 13.07493115 18.26019254 4.21484375 9.48046875 C3 8 3 8 3 6 C2.34 6 1.68 6 1 6 C0.67 4.02 0.34 2.04 0 0 Z " fill="#F1F1F1" transform="translate(221,510)"/>
<path d="M0 0 C-0.45822468 3.46941546 -0.89131683 6.67395049 -2 10 C-2.66 10 -3.32 10 -4 10 C-4.20625 10.680625 -4.4125 11.36125 -4.625 12.0625 C-6.14887254 15.31804589 -8.0244842 17.49404867 -10.40234375 20.15234375 C-12.82466125 22.9537036 -14.8897741 25.95879208 -17 29 C-20.77968573 28.22976993 -22.47959631 26.97047577 -25 24 C-25 23.34 -25 22.68 -25 22 C-25.99 21.67 -26.98 21.34 -28 21 C-25.64245957 12.61763402 -19.06426895 7.67063766 -11.875 3.5 C-11.27719727 3.1496167 -10.67939453 2.7992334 -10.06347656 2.43823242 C-6.57425153 0.51489641 -3.9893167 -0.42151271 0 0 Z " fill="#EE6300" transform="translate(479,37)"/>
<path d="M0 0 C24.63687151 -0.28796343 24.63687151 -0.28796343 35 2 C35 2.66 35 3.32 35 4 C26.77259756 6.15531686 18.54951822 8.18260505 10.1875 9.75 C9.51267578 9.87737549 8.83785156 10.00475098 8.14257812 10.13598633 C5.3774612 10.63979402 2.81790232 11 0 11 C0 7.37 0 3.74 0 0 Z " fill="#E35E00" transform="translate(464,85)"/>
<path d="M0 0 C2.5 1.5 2.5 1.5 4 4 C4 8.42134985 3.76949979 10.81615417 1.375 14.5 C-1.94444356 16.59649067 -4.14532764 16.48183405 -8 16 C-10.4375 15 -10.4375 15 -12 13 C-12.7170731 8.06016309 -12.77880489 6.13280711 -9.9375 2 C-6.25623347 -0.50639423 -4.37098953 -0.71525283 0 0 Z " fill="#141414" transform="translate(424,79)"/>
<path d="M0 0 C4.95298407 0.76381471 9.80902429 1.8052222 14.6875 2.9375 C15.82541992 3.19176758 15.82541992 3.19176758 16.98632812 3.45117188 C20.4743747 4.260842 22.99179683 4.99453122 26 7 C17.86618284 6.20256694 9.76020565 4.58673522 2 2 C1.67 3.32 1.34 4.64 1 6 C0.67 4.02 0.34 2.04 0 0 Z " fill="#B3B3B3" transform="translate(221,510)"/>
<path d="M0 0 C0.66 0.33 1.32 0.66 2 1 C-2.62 5.62 -7.24 10.24 -12 15 C-12 10.09687565 -8.29800369 7.38658643 -5 4 C-3.37458956 2.61667196 -1.72614587 1.25537882 0 0 Z " fill="#C4C4C4" transform="translate(398,80)"/>
<path d="M0 0 C0.33 0.66 0.66 1.32 1 2 C-7.27906977 11.58139535 -7.27906977 11.58139535 -10 14 C-10.66 14 -11.32 14 -12 14 C-10.5689218 10.60864281 -8.82934817 8.76235043 -6 6.4375 C-3.44227537 4.32643684 -1.866865 2.80029749 0 0 Z " fill="#D2D2D2" transform="translate(129,206)"/>
<path d="M0 0 C0.33 0 0.66 0 1 0 C1.33 4.95 1.66 9.9 2 15 C1.01 15 0.02 15 -1 15 C-1.10251672 9.87416389 -1.03590199 5.05002222 0 0 Z " fill="#AF4800" transform="translate(79,583)"/>
<path d="M0 0 C0 3 0 3 -1.4609375 4.82421875 C-2.09257813 5.43910156 -2.72421875 6.05398438 -3.375 6.6875 C-4.00148438 7.31011719 -4.62796875 7.93273437 -5.2734375 8.57421875 C-7 10 -7 10 -9 10 C-7.61811547 6.78956118 -6.07578097 4.95063635 -3.375 2.75 C-2.74335937 2.22921875 -2.11171875 1.7084375 -1.4609375 1.171875 C-0.73777344 0.59179688 -0.73777344 0.59179688 0 0 Z " fill="#C15000" transform="translate(92,530)"/>
<path d="M0 0 C4.6875 0.78125 4.6875 0.78125 9.375 1.5625 C10.674375 1.7790625 10.674375 1.7790625 12 2 C12 2.33 12 2.66 12 3 C5.375 3.125 5.375 3.125 2 2 C1.67 3.32 1.34 4.64 1 6 C0.67 4.02 0.34 2.04 0 0 Z " fill="#8F8F8F" transform="translate(221,510)"/>
<path d="M0 0 C0.66 0 1.32 0 2 0 C1.68289062 0.52078125 1.36578125 1.0415625 1.0390625 1.578125 C-0.28920511 4.67408709 -0.42364247 7.39404121 -0.625 10.75 C-0.69976562 11.92046875 -0.77453125 13.0909375 -0.8515625 14.296875 C-0.90054688 15.18890625 -0.94953125 16.0809375 -1 17 C-1.33 17 -1.66 17 -2 17 C-2.05383848 14.54137599 -2.09359038 12.0839245 -2.125 9.625 C-2.14175781 8.92632812 -2.15851563 8.22765625 -2.17578125 7.5078125 C-2.19344267 5.67102514 -2.10303261 3.83398037 -2 2 C-1.34 1.34 -0.68 0.68 0 0 Z " fill="#D2D2D2" transform="translate(107,54)"/>
<path d="M0 0 C-1.49097658 3.7952131 -3.75700849 5.61042731 -7 8 C-7 5 -7 5 -4.625 2.3125 C-2 0 -2 0 0 0 Z " fill="#C9C9C9" transform="translate(104,115)"/>
</svg>
